<svg width="26" height="26" viewBox="0 0 26 26" fill="#ffffff" xmlns="http://www.w3.org/2000/svg">
    <path fill-rule="evenodd" clip-rule="evenodd" d="M0 8.7321C0 5.67558 0 4.14732 0.594839 2.97988C1.11807 1.95297 1.95297 1.11807 2.97988 0.594839C4.14732 0 5.67558 0 8.7321 0H17.0673C20.1238 0 21.6521 0 22.8195 0.594839C23.8464 1.11807 24.6813 1.95297 25.2045 2.97988C25.7994 4.14732 25.7994 5.67558 25.7994 8.7321V17.0673C25.7994 20.1238 25.7994 21.6521 25.2045 22.8195C24.6813 23.8464 23.8464 24.6813 22.8195 25.2045C21.6521 25.7994 20.1238 25.7994 17.0673 25.7994H8.7321C5.67558 25.7994 4.14732 25.7994 2.97988 25.2045C1.95297 24.6813 1.11807 23.8464 0.594839 22.8195C0 21.6521 0 20.1238 0 17.0673V8.7321ZM18.688 2.31534H20.3418V23.1533H18.688V2.31534ZM10.0115 21.7127C7.06735 21.7127 5.01332 19.8869 4.71663 17.6503L7.15864 17.0113C7.34122 18.3806 8.41388 19.4076 9.94299 19.4076C12.0427 19.4076 13.0925 18.335 13.0925 16.0755V14.9116C12.6132 15.7788 11.4949 16.532 9.87452 16.532C6.90759 16.532 4.73945 14.2497 4.73945 11.123C4.73945 8.15612 6.8163 5.71411 9.87452 5.71411C11.609 5.71411 12.6817 6.42161 13.161 7.33451V5.91951H15.7171V15.9842C15.7171 18.9512 14.188 21.7127 10.0115 21.7127ZM7.40969 11.123C7.40969 13.063 8.57364 14.2726 10.3081 14.2726C11.997 14.2726 13.161 13.0401 13.161 11.123C13.161 9.22878 11.9514 7.99636 10.3081 7.99636C8.61928 7.99636 7.40969 9.22878 7.40969 11.123Z" fill="#1F272E"/>
</svg>
